# xmcd CD database file
#
# Track frame offsets:
#	150
#	14457
#	30042
#	44805
#	57855
#	76292
#	97475
#	119490
#	131782
#	149575
#	163800
#	176725
#
# Disc length: 2526 seconds
#
# Revision: 1
# Processed by: cddbd v1.4PL0 Copyright (c) Steve Scherf et al.
# Submitted via: CDex 1.50
#
DISCID=b009dc0c
DTITLE=La Vern Baker - Sings Bessie Smith
DYEAR=1900
DGENRE=Jazz
TTITLE0=Gimme A Pigfoot
TTITLE1=Baby Doll
TTITLE2=On Revival Day
TTITLE3=Money Blues
TTITLE4=I Ain't Gonna Play No Second Fiddle
TTITLE5=Back Water Blues
TTITLE6=Empty Bed Blues
TTITLE7=There'll Be A Hot Time In The Old Town Tonight
TTITLE8=Nobody Knows You When You're Down And Out
TTITLE9=After You've Gone
TTITLE10=Young Woman's Blues
TTITLE11=Preaching The Blues
EXTD=
EXTT0=
EXTT1=
EXTT2=
EXTT3=
EXTT4=
EXTT5=
EXTT6=
EXTT7=
EXTT8=
EXTT9=
EXTT10=
EXTT11=
PLAYORDER=
